<svg xmlns="http://www.w3.org/2000/svg" viewBox="0 0 760 540" width="760" height="540">
<rect width="760" height="540" fill="#000000"/>
<g transform="translate(0 60)">
<g transform="translate(270 0) scale(0.55)"><rect x="11" y="11" width="378" height="378" fill="none" stroke="#ffffff" stroke-width="22"/><path transform="translate(54.112 178.000)" d="M11.89 0Q11.89 0 11.89 0Q11.89 0 11.89 0L11.89 -112Q11.89 -112 11.89 -112Q11.89 -112 11.89 -112L57.09 -112Q70.94 -112 80.4 -103.55Q89.87 -95.11 89.87 -82.44L89.87 -82.44Q89.87 -73.83 85.6 -67.58Q81.34 -61.32 74.15 -58.11L74.15 -57.64Q82.83 -54.98 88.3 -48.02Q93.78 -41.06 93.78 -31.75L93.78 -31.75Q93.78 -18.3 84.04 -9.15Q74.3 0 59.68 0ZM32.69 -17.36L56.39 -17.36Q63.2 -17.36 67.97 -22.02Q72.74 -26.67 72.74 -33.4L72.74 -33.4Q72.74 -40.28 67.77 -44.74Q62.8 -49.2 55.84 -49.2L26.44 -49.2L26.44 -64.76L53.81 -64.76Q60.69 -64.76 65.15 -69.1Q69.61 -73.44 69.61 -79.54L69.61 -79.54Q69.61 -85.64 65.27 -89.94Q60.93 -94.25 54.36 -94.25L32.69 -94.25Z" fill="#ffffff"/><path transform="translate(230.682 334.000)" d="M41.84 0Q41.84 0 41.84 0Q41.84 0 41.84 0L1.33 -112Q1.33 -112 1.33 -112Q1.33 -112 1.33 -112L23.78 -112Q23.78 -112 23.78 -112Q23.78 -112 23.78 -112L48.34 -40.28L52.09 -28.47L52.64 -28.47L56.39 -40.12L81.18 -112Q81.18 -112 81.18 -112Q81.18 -112 81.18 -112L103.32 -112Q103.32 -112 103.32 -112Q103.32 -112 103.32 -112L61.4 0Q61.4 0 61.4 0Q61.4 0 61.4 0Z" fill="#ffffff"/></g>
<path transform="translate(55.550 330.000)" d="M4.68 0Q4.68 0 4.68 0Q4.68 0 4.68 0L4.68 -42.96Q4.68 -42.96 4.68 -42.96Q4.68 -42.96 4.68 -42.96L21.06 -42.96Q26.25 -42.96 29.88 -39.7Q33.51 -36.45 33.51 -31.56L33.51 -31.56Q33.51 -28.35 31.9 -25.96Q30.3 -23.58 27.54 -22.32L27.54 -22.08Q30.84 -21.06 32.91 -18.4Q34.98 -15.75 34.98 -12.24L34.98 -12.24Q34.98 -7.02 31.22 -3.51Q27.45 0 21.96 0ZM11.22 -5.76L21.51 -5.76Q24.36 -5.76 26.36 -7.75Q28.35 -9.75 28.35 -12.57L28.35 -12.57Q28.35 -15.39 26.28 -17.29Q24.21 -19.2 21.27 -19.2L8.82 -19.2L8.82 -24.63L20.43 -24.63Q23.31 -24.63 25.2 -26.47Q27.09 -28.32 27.09 -30.9L27.09 -30.9Q27.09 -33.48 25.24 -35.29Q23.4 -37.11 20.67 -37.11L11.22 -37.11Z M54.32 0.99Q47.33 0.99 42.77 -3.66Q38.21 -8.31 38.21 -15.36L38.21 -15.36Q38.21 -22.5 42.79 -27.09Q47.36 -31.68 54.32 -31.68Q61.28 -31.68 65.87 -27.06Q70.46 -22.44 70.46 -15.36L70.46 -15.36Q70.46 -8.31 65.9 -3.66Q61.34 0.99 54.32 0.99ZM54.32 -4.71Q58.43 -4.71 61.22 -7.69Q64.01 -10.68 64.01 -15.36L64.01 -15.36Q64.01 -20.1 61.21 -23.04Q58.4 -25.98 54.32 -25.98Q50.21 -25.98 47.42 -23.04Q44.63 -20.1 44.63 -15.36L44.63 -15.36Q44.63 -10.68 47.41 -7.69Q50.18 -4.71 54.32 -4.71Z M86.32 0.99Q81.64 0.99 78.27 -0.88Q74.89 -2.76 72.7 -6.75Q72.7 -6.75 72.7 -6.75Q72.7 -6.75 72.7 -6.75L77.62 -9.69Q77.62 -9.69 77.62 -9.69Q77.62 -9.69 77.62 -9.69Q79.12 -6.9 81.37 -5.61Q83.62 -4.32 86.68 -4.32Q89.44 -4.32 90.99 -5.34Q92.53 -6.36 92.53 -8.37L92.53 -8.37Q92.53 -9.9 91.15 -10.93Q89.77 -11.97 85.18 -13.08Q79.24 -14.55 76.57 -16.75Q73.9 -18.96 73.9 -22.53L73.9 -22.53Q73.9 -26.73 77.4 -29.2Q80.89 -31.68 86.05 -31.68Q90.16 -31.68 93.21 -30.12Q96.25 -28.56 98.17 -25.44Q98.17 -25.44 98.17 -25.44Q98.17 -25.44 98.17 -25.44L93.43 -22.53Q93.43 -22.53 93.43 -22.53Q93.43 -22.53 93.43 -22.53Q92.17 -24.48 90.3 -25.42Q88.42 -26.37 85.96 -26.37Q83.56 -26.37 81.9 -25.41Q80.23 -24.45 80.23 -22.77L80.23 -22.77Q80.23 -21.27 81.55 -20.28Q82.87 -19.29 87.82 -18.15Q93.97 -16.71 96.43 -14.38Q98.89 -12.06 98.89 -8.67L98.89 -8.67Q98.89 -4.29 95.41 -1.65Q91.93 0.99 86.32 0.99Z M115.29 0.99Q111.15 0.99 108.69 -1.42Q106.23 -3.84 106.23 -8.19L106.23 -39.24Q106.23 -39.24 106.23 -39.24Q106.23 -39.24 106.23 -39.24L112.74 -39.24Q112.74 -39.24 112.74 -39.24Q112.74 -39.24 112.74 -39.24L112.74 -9.45Q112.74 -6.99 113.73 -5.8Q114.72 -4.62 116.67 -4.62Q117.42 -4.62 118.31 -4.81Q119.19 -5.01 120.3 -5.43Q120.3 -5.43 120.3 -5.43Q120.3 -5.43 120.3 -5.43L120.3 0.12Q120.3 0.12 120.3 0.12Q120.3 0.12 120.3 0.12Q118.89 0.6 117.75 0.8Q116.61 0.99 115.29 0.99ZM101.13 -25.23Q101.13 -25.23 101.13 -25.23Q101.13 -25.23 101.13 -25.23L101.13 -30.69Q101.13 -30.69 101.13 -30.69Q101.13 -30.69 101.13 -30.69L120.18 -30.69Q120.18 -30.69 120.18 -30.69Q120.18 -30.69 120.18 -30.69L120.18 -25.23Q120.18 -25.23 120.18 -25.23Q120.18 -25.23 120.18 -25.23Z M139.52 0.99Q132.53 0.99 127.97 -3.66Q123.41 -8.31 123.41 -15.36L123.41 -15.36Q123.41 -22.5 127.98 -27.09Q132.56 -31.68 139.52 -31.68Q146.48 -31.68 151.07 -27.06Q155.66 -22.44 155.66 -15.36L155.66 -15.36Q155.66 -8.31 151.1 -3.66Q146.54 0.99 139.52 0.99ZM139.52 -4.71Q143.63 -4.71 146.42 -7.69Q149.21 -10.68 149.21 -15.36L149.21 -15.36Q149.21 -20.1 146.41 -23.04Q143.6 -25.98 139.52 -25.98Q135.41 -25.98 132.62 -23.04Q129.83 -20.1 129.83 -15.36L129.83 -15.36Q129.83 -10.68 132.6 -7.69Q135.38 -4.71 139.52 -4.71Z M160.39 0L160.39 -30.69Q160.39 -30.69 160.39 -30.69Q160.39 -30.69 160.39 -30.69L166.63 -30.69Q166.63 -30.69 166.63 -30.69Q166.63 -30.69 166.63 -30.69L166.63 -25.17L165.79 -26.19L166.81 -26.19Q168.19 -28.62 170.99 -30.15Q173.8 -31.68 176.83 -31.68Q182.14 -31.68 185.13 -28.53Q188.11 -25.38 188.11 -19.89L188.11 0Q188.11 0 188.11 0Q188.11 0 188.11 0L181.57 0Q181.57 0 181.57 0Q181.57 0 181.57 0L181.57 -18.63Q181.57 -22.29 179.82 -24.16Q178.06 -26.04 174.64 -26.04Q171.37 -26.04 169.15 -23.46Q166.93 -20.88 166.93 -17.25L166.93 0Q166.93 0 166.93 0Q166.93 0 166.93 0L160.39 0Q160.39 0 160.39 0Q160.39 0 160.39 0Z M220.22 0.99Q214.85 0.99 210.85 -1.78Q206.84 -4.56 204.62 -10.62Q204.62 -10.62 204.62 -10.62Q204.62 -10.62 204.62 -10.62L210.56 -12.96Q210.56 -12.96 210.56 -12.96Q210.56 -12.96 210.56 -12.96Q212.3 -8.76 214.67 -6.84Q217.04 -4.92 220.43 -4.92Q224 -4.92 226.22 -6.76Q228.44 -8.61 228.44 -11.64L228.44 -11.64Q228.44 -14.16 226.37 -15.97Q224.3 -17.79 218.72 -19.68Q211.76 -22.02 209 -24.97Q206.24 -27.93 206.24 -31.98L206.24 -31.98Q206.24 -37.17 210.17 -40.56Q214.1 -43.95 220.07 -43.95Q224.81 -43.95 228.25 -41.76Q231.68 -39.57 233.78 -35.07Q233.78 -35.07 233.78 -35.07Q233.78 -35.07 233.78 -35.07L228.05 -32.64Q228.05 -32.64 228.05 -32.64Q228.05 -32.64 228.05 -32.64Q226.64 -35.52 224.72 -36.81Q222.8 -38.1 219.8 -38.1Q217.04 -38.1 214.88 -36.48Q212.72 -34.86 212.72 -32.31L212.72 -32.31Q212.72 -30.24 214.36 -28.72Q215.99 -27.21 222.71 -25.05Q229.04 -23.04 232.01 -19.8Q234.98 -16.56 234.98 -11.82L234.98 -11.82Q234.98 -5.91 230.5 -2.46Q226.01 0.99 220.22 0.99Z M262.57 12.96Q262.57 12.96 262.57 12.96Q262.57 12.96 262.57 12.96L262.57 -3.93L262.39 -3.93Q261.19 -1.68 258.51 -0.34Q255.82 0.99 252.34 0.99Q246.1 0.99 241.98 -3.58Q237.85 -8.16 237.85 -15.42L237.85 -15.42Q237.85 -22.56 242.04 -27.12Q246.22 -31.68 252.49 -31.68Q255.7 -31.68 258.45 -30.24Q261.19 -28.8 262.69 -26.43L264.37 -26.43L262.87 -24.69L262.87 -30.69Q262.87 -30.69 262.87 -30.69Q262.87 -30.69 262.87 -30.69L269.11 -30.69Q269.11 -30.69 269.11 -30.69Q269.11 -30.69 269.11 -30.69L269.11 12.96Q269.11 12.96 269.11 12.96Q269.11 12.96 269.11 12.96ZM253.57 -4.71Q257.74 -4.71 260.31 -7.59Q262.87 -10.47 262.87 -15.45L262.87 -15.45Q262.87 -20.13 260.15 -23.05Q257.44 -25.98 253.57 -25.98Q249.7 -25.98 246.99 -23.04Q244.27 -20.1 244.27 -15.45L244.27 -15.45Q244.27 -10.71 246.96 -7.71Q249.64 -4.71 253.57 -4.71Z M286.68 0.99Q281.22 0.99 278.25 -2.17Q275.28 -5.34 275.28 -11.13L275.28 -30.69Q275.28 -30.69 275.28 -30.69Q275.28 -30.69 275.28 -30.69L281.82 -30.69Q281.82 -30.69 281.82 -30.69Q281.82 -30.69 281.82 -30.69L281.82 -12.12Q281.82 -8.37 283.54 -6.39Q285.27 -4.41 288.48 -4.41Q291.84 -4.41 294.15 -7Q296.46 -9.6 296.46 -13.23L296.46 -30.69Q296.46 -30.69 296.46 -30.69Q296.46 -30.69 296.46 -30.69L303 -30.69Q303 -30.69 303 -30.69Q303 -30.69 303 -30.69L303 0Q303 0 303 0Q303 0 303 0L296.79 0Q296.79 0 296.79 0Q296.79 0 296.79 0L296.79 -7.29L299.76 -4.32L296.61 -4.32Q295.32 -2.01 292.59 -0.51Q289.86 0.99 286.68 0.99Z M318.83 0.99Q313.82 0.99 310.73 -1.8Q307.64 -4.59 307.64 -9.09L307.64 -9.09Q307.64 -13.86 311.24 -16.65Q314.84 -19.44 320.57 -19.44Q323.09 -19.44 325.41 -18.94Q327.74 -18.45 329.18 -17.73L329.18 -19.5Q329.18 -22.65 327.02 -24.52Q324.86 -26.4 321.35 -26.4Q318.59 -26.4 316.55 -25.39Q314.51 -24.39 312.62 -22.29Q312.62 -22.29 312.62 -22.29Q312.62 -22.29 312.62 -22.29L308.72 -25.89Q308.72 -25.89 308.72 -25.89Q308.72 -25.89 308.72 -25.89Q311.81 -29.07 314.79 -30.36Q317.78 -31.65 321.83 -31.65Q328.25 -31.65 331.91 -28.42Q335.57 -25.2 335.57 -19.44L335.57 0Q335.57 0 335.57 0Q335.57 0 335.57 0L329.18 0Q329.18 0 329.18 0Q329.18 0 329.18 0L329.18 -7.17L330.98 -4.47L329 -4.47Q327.68 -2.1 324.95 -0.55Q322.22 0.99 318.83 0.99ZM320.45 -4.29Q324.17 -4.29 326.67 -6.82Q329.18 -9.36 329.18 -13.02L329.18 -13.08Q327.83 -13.98 325.9 -14.47Q323.96 -14.97 321.86 -14.97Q318.35 -14.97 316.25 -13.57Q314.15 -12.18 314.15 -9.48L314.15 -9.48Q314.15 -7.11 315.92 -5.7Q317.69 -4.29 320.45 -4.29Z M341.77 0Q341.77 0 341.77 0Q341.77 0 341.77 0L341.77 -30.69Q341.77 -30.69 341.77 -30.69Q341.77 -30.69 341.77 -30.69L348.01 -30.69Q348.01 -30.69 348.01 -30.69Q348.01 -30.69 348.01 -30.69L348.01 -25.02L347.17 -25.83L348.19 -25.83Q349.06 -28.32 351.56 -30Q354.07 -31.68 356.83 -31.68Q357.64 -31.68 358.49 -31.54Q359.35 -31.41 360.7 -30.99Q360.7 -30.99 360.7 -30.99Q360.7 -30.99 360.7 -30.99L360.7 -24.48Q360.7 -24.48 360.7 -24.48Q360.7 -24.48 360.7 -24.48Q358.81 -25.08 357.8 -25.26Q356.8 -25.44 356.08 -25.44Q352.81 -25.44 350.56 -22.92Q348.31 -20.4 348.31 -16.71L348.31 0Q348.31 0 348.31 0Q348.31 0 348.31 0Z M376.98 0.99Q370.05 0.99 365.72 -3.58Q361.38 -8.16 361.38 -15.33L361.38 -15.33Q361.38 -22.41 365.68 -27.03Q369.99 -31.65 376.77 -31.65Q383.34 -31.65 387.46 -27.3Q391.59 -22.95 391.59 -15.93Q391.59 -15.27 391.54 -14.86Q391.5 -14.46 391.41 -13.71Q391.41 -13.71 391.41 -13.71Q391.41 -13.71 391.41 -13.71L364.83 -13.71L364.83 -18.81L385.05 -18.81L385.05 -18.81Q384.72 -21.96 382.54 -24.06Q380.37 -26.16 376.74 -26.16Q372.78 -26.16 370.3 -23.28Q367.83 -20.4 367.83 -15.48L367.83 -15.48Q367.83 -10.38 370.59 -7.36Q373.35 -4.35 377.61 -4.35Q380.43 -4.35 382.51 -5.56Q384.6 -6.78 386.37 -9.48Q386.37 -9.48 386.37 -9.48Q386.37 -9.48 386.37 -9.48L390.87 -6.54Q390.87 -6.54 390.87 -6.54Q390.87 -6.54 390.87 -6.54Q388.68 -2.76 385.29 -0.88Q381.9 0.99 376.98 0.99Z M421.18 0Q421.18 0 421.18 0Q421.18 0 421.18 0L405.73 -42.96Q405.73 -42.96 405.73 -42.96Q405.73 -42.96 405.73 -42.96L412.87 -42.96Q412.87 -42.96 412.87 -42.96Q412.87 -42.96 412.87 -42.96L422.95 -13.65L424.42 -9.21L424.6 -9.21L426.07 -13.56L436.36 -42.96Q436.36 -42.96 436.36 -42.96Q436.36 -42.96 436.36 -42.96L443.38 -42.96Q443.38 -42.96 443.38 -42.96Q443.38 -42.96 443.38 -42.96L427.48 0Q427.48 0 427.48 0Q427.48 0 427.48 0Z M456.84 0.99Q449.91 0.99 445.57 -3.58Q441.24 -8.16 441.24 -15.33L441.24 -15.33Q441.24 -22.41 445.54 -27.03Q449.85 -31.65 456.63 -31.65Q463.2 -31.65 467.32 -27.3Q471.45 -22.95 471.45 -15.93Q471.45 -15.27 471.4 -14.86Q471.36 -14.46 471.27 -13.71Q471.27 -13.71 471.27 -13.71Q471.27 -13.71 471.27 -13.71L444.69 -13.71L444.69 -18.81L464.91 -18.81L464.91 -18.81Q464.58 -21.96 462.4 -24.06Q460.23 -26.16 456.6 -26.16Q452.64 -26.16 450.16 -23.28Q447.69 -20.4 447.69 -15.48L447.69 -15.48Q447.69 -10.38 450.45 -7.36Q453.21 -4.35 457.47 -4.35Q460.29 -4.35 462.37 -5.56Q464.46 -6.78 466.23 -9.48Q466.23 -9.48 466.23 -9.48Q466.23 -9.48 466.23 -9.48L470.73 -6.54Q470.73 -6.54 470.73 -6.54Q470.73 -6.54 470.73 -6.54Q468.54 -2.76 465.15 -0.88Q461.76 0.99 456.84 0.99Z M476.24 0L476.24 -30.69Q476.24 -30.69 476.24 -30.69Q476.24 -30.69 476.24 -30.69L482.48 -30.69Q482.48 -30.69 482.48 -30.69Q482.48 -30.69 482.48 -30.69L482.48 -25.17L481.64 -26.19L482.66 -26.19Q484.04 -28.62 486.84 -30.15Q489.65 -31.68 492.68 -31.68Q497.99 -31.68 500.97 -28.53Q503.96 -25.38 503.96 -19.89L503.96 0Q503.96 0 503.96 0Q503.96 0 503.96 0L497.42 0Q497.42 0 497.42 0Q497.42 0 497.42 0L497.42 -18.63Q497.42 -22.29 495.66 -24.16Q493.91 -26.04 490.49 -26.04Q487.22 -26.04 485 -23.46Q482.78 -20.88 482.78 -17.25L482.78 0Q482.78 0 482.78 0Q482.78 0 482.78 0L476.24 0Q476.24 0 476.24 0Q476.24 0 476.24 0Z M522.1 0.99Q517.96 0.99 515.5 -1.42Q513.04 -3.84 513.04 -8.19L513.04 -39.24Q513.04 -39.24 513.04 -39.24Q513.04 -39.24 513.04 -39.24L519.55 -39.24Q519.55 -39.24 519.55 -39.24Q519.55 -39.24 519.55 -39.24L519.55 -9.45Q519.55 -6.99 520.54 -5.8Q521.53 -4.62 523.48 -4.62Q524.23 -4.62 525.11 -4.81Q526 -5.01 527.11 -5.43Q527.11 -5.43 527.11 -5.43Q527.11 -5.43 527.11 -5.43L527.11 0.12Q527.11 0.12 527.11 0.12Q527.11 0.12 527.11 0.12Q525.7 0.6 524.56 0.8Q523.42 0.99 522.1 0.99ZM507.94 -25.23Q507.94 -25.23 507.94 -25.23Q507.94 -25.23 507.94 -25.23L507.94 -30.69Q507.94 -30.69 507.94 -30.69Q507.94 -30.69 507.94 -30.69L526.99 -30.69Q526.99 -30.69 526.99 -30.69Q526.99 -30.69 526.99 -30.69L526.99 -25.23Q526.99 -25.23 526.99 -25.23Q526.99 -25.23 526.99 -25.23Z M543.15 0.99Q537.69 0.99 534.72 -2.17Q531.75 -5.34 531.75 -11.13L531.75 -30.69Q531.75 -30.69 531.75 -30.69Q531.75 -30.69 531.75 -30.69L538.29 -30.69Q538.29 -30.69 538.29 -30.69Q538.29 -30.69 538.29 -30.69L538.29 -12.12Q538.29 -8.37 540.01 -6.39Q541.74 -4.41 544.95 -4.41Q548.31 -4.41 550.62 -7Q552.93 -9.6 552.93 -13.23L552.93 -30.69Q552.93 -30.69 552.93 -30.69Q552.93 -30.69 552.93 -30.69L559.47 -30.69Q559.47 -30.69 559.47 -30.69Q559.47 -30.69 559.47 -30.69L559.47 0Q559.47 0 559.47 0Q559.47 0 559.47 0L553.26 0Q553.26 0 553.26 0Q553.26 0 553.26 0L553.26 -7.29L556.23 -4.32L553.08 -4.32Q551.79 -2.01 549.06 -0.51Q546.33 0.99 543.15 0.99Z M565.91 0Q565.91 0 565.91 0Q565.91 0 565.91 0L565.91 -30.69Q565.91 -30.69 565.91 -30.69Q565.91 -30.69 565.91 -30.69L572.15 -30.69Q572.15 -30.69 572.15 -30.69Q572.15 -30.69 572.15 -30.69L572.15 -25.02L571.31 -25.83L572.33 -25.83Q573.2 -28.32 575.7 -30Q578.21 -31.68 580.97 -31.68Q581.78 -31.68 582.64 -31.54Q583.49 -31.41 584.84 -30.99Q584.84 -30.99 584.84 -30.99Q584.84 -30.99 584.84 -30.99L584.84 -24.48Q584.84 -24.48 584.84 -24.48Q584.84 -24.48 584.84 -24.48Q582.95 -25.08 581.94 -25.26Q580.94 -25.44 580.22 -25.44Q576.95 -25.44 574.7 -22.92Q572.45 -20.4 572.45 -16.71L572.45 0Q572.45 0 572.45 0Q572.45 0 572.45 0Z M601.12 0.99Q594.19 0.99 589.86 -3.58Q585.52 -8.16 585.52 -15.33L585.52 -15.33Q585.52 -22.41 589.83 -27.03Q594.13 -31.65 600.91 -31.65Q607.48 -31.65 611.61 -27.3Q615.73 -22.95 615.73 -15.93Q615.73 -15.27 615.68 -14.86Q615.64 -14.46 615.55 -13.71Q615.55 -13.71 615.55 -13.71Q615.55 -13.71 615.55 -13.71L588.97 -13.71L588.97 -18.81L609.19 -18.81L609.19 -18.81Q608.86 -21.96 606.68 -24.06Q604.51 -26.16 600.88 -26.16Q596.92 -26.16 594.44 -23.28Q591.97 -20.4 591.97 -15.48L591.97 -15.48Q591.97 -10.38 594.73 -7.36Q597.49 -4.35 601.75 -4.35Q604.57 -4.35 606.66 -5.56Q608.74 -6.78 610.51 -9.48Q610.51 -9.48 610.51 -9.48Q610.51 -9.48 610.51 -9.48L615.01 -6.54Q615.01 -6.54 615.01 -6.54Q615.01 -6.54 615.01 -6.54Q612.82 -2.76 609.43 -0.88Q606.04 0.99 601.12 0.99Z M631.65 0.99Q626.97 0.99 623.59 -0.88Q620.22 -2.76 618.03 -6.75Q618.03 -6.75 618.03 -6.75Q618.03 -6.75 618.03 -6.75L622.95 -9.69Q622.95 -9.69 622.95 -9.69Q622.95 -9.69 622.95 -9.69Q624.45 -6.9 626.7 -5.61Q628.95 -4.32 632.01 -4.32Q634.77 -4.32 636.31 -5.34Q637.86 -6.36 637.86 -8.37L637.86 -8.37Q637.86 -9.9 636.48 -10.93Q635.1 -11.97 630.51 -13.08Q624.57 -14.55 621.9 -16.75Q619.23 -18.96 619.23 -22.53L619.23 -22.53Q619.23 -26.73 622.72 -29.2Q626.22 -31.68 631.38 -31.68Q635.49 -31.68 638.54 -30.12Q641.58 -28.56 643.5 -25.44Q643.5 -25.44 643.5 -25.44Q643.5 -25.44 643.5 -25.44L638.76 -22.53Q638.76 -22.53 638.76 -22.53Q638.76 -22.53 638.76 -22.53Q637.5 -24.48 635.63 -25.42Q633.75 -26.37 631.29 -26.37Q628.89 -26.37 627.22 -25.41Q625.56 -24.45 625.56 -22.77L625.56 -22.77Q625.56 -21.27 626.88 -20.28Q628.2 -19.29 633.15 -18.15Q639.3 -16.71 641.76 -14.38Q644.22 -12.06 644.22 -8.67L644.22 -8.67Q644.22 -4.29 640.74 -1.65Q637.26 0.99 631.65 0.99Z" fill="#ffffff"/>
<path transform="translate(249.890 386.000)" d="M7.23 0.48Q4.92 0.48 3.27 -0.52Q1.62 -1.53 0.69 -3.63Q0.69 -3.63 0.69 -3.63Q0.69 -3.63 0.69 -3.63L2.99 -4.65Q2.99 -4.65 2.99 -4.65Q2.99 -4.65 2.99 -4.65Q3.66 -3.16 4.77 -2.47Q5.88 -1.77 7.41 -1.77Q8.91 -1.77 9.76 -2.35Q10.62 -2.94 10.62 -4.08L10.62 -4.08Q10.62 -4.93 9.89 -5.53Q9.15 -6.12 6.89 -6.67Q3.9 -7.41 2.57 -8.49Q1.23 -9.57 1.23 -11.35L1.23 -11.35Q1.23 -13.36 2.93 -14.57Q4.64 -15.78 7.08 -15.78Q9.14 -15.78 10.6 -14.94Q12.06 -14.1 12.83 -12.49Q12.83 -12.49 12.83 -12.49Q12.83 -12.49 12.83 -12.49L10.61 -11.47Q10.61 -11.47 10.61 -11.47Q10.61 -11.47 10.61 -11.47Q10.08 -12.51 9.17 -13.01Q8.27 -13.51 7.01 -13.51Q5.69 -13.51 4.76 -12.96Q3.83 -12.4 3.83 -11.46L3.83 -11.46Q3.83 -10.6 4.51 -10.04Q5.21 -9.48 7.73 -8.89Q10.86 -8.16 12.04 -7Q13.22 -5.85 13.22 -4.21L13.22 -4.21Q13.22 -2.07 11.54 -0.79Q9.87 0.48 7.23 0.48Z M21.8 0.48Q19.95 0.48 18.8 -0.67Q17.66 -1.81 17.66 -3.76L17.66 -19.62Q17.66 -19.62 17.66 -19.62Q17.66 -19.62 17.66 -19.62L20.2 -19.62Q20.2 -19.62 20.2 -19.62Q20.2 -19.62 20.2 -19.62L20.2 -4.39Q20.2 -3.1 20.72 -2.49Q21.23 -1.87 22.23 -1.87Q22.59 -1.87 23.03 -1.97Q23.48 -2.07 24.02 -2.28Q24.02 -2.28 24.02 -2.28Q24.02 -2.28 24.02 -2.28L24.02 0.09Q24.02 0.09 24.02 0.09Q24.02 0.09 24.02 0.09Q23.4 0.3 22.89 0.39Q22.38 0.48 21.8 0.48ZM14.99 -12.99Q14.99 -12.99 14.99 -12.99Q14.99 -12.99 14.99 -12.99L14.99 -15.3Q14.99 -15.3 14.99 -15.3Q14.99 -15.3 14.99 -15.3L23.96 -15.3Q23.96 -15.3 23.96 -15.3Q23.96 -15.3 23.96 -15.3L23.96 -12.99Q23.96 -12.99 23.96 -12.99Q23.96 -12.99 23.96 -12.99Z M31.88 0.48Q29.33 0.48 27.72 -0.97Q26.12 -2.41 26.12 -4.69L26.12 -4.69Q26.12 -6.99 27.92 -8.38Q29.73 -9.78 32.57 -9.78Q33.83 -9.78 35.04 -9.49Q36.25 -9.21 36.95 -8.79L36.95 -9.72Q36.95 -11.4 35.76 -12.45Q34.58 -13.5 32.71 -13.5Q31.38 -13.5 30.45 -13.01Q29.52 -12.52 28.6 -11.43Q28.6 -11.43 28.6 -11.43Q28.6 -11.43 28.6 -11.43L26.67 -12.87Q26.67 -12.87 26.67 -12.87Q26.67 -12.87 26.67 -12.87Q28.1 -14.52 29.43 -15.15Q30.77 -15.78 32.71 -15.78Q35.81 -15.78 37.59 -14.14Q39.38 -12.51 39.38 -9.69L39.38 0Q39.38 0 39.38 0Q39.38 0 39.38 0L36.95 0Q36.95 0 36.95 0Q36.95 0 36.95 0L36.95 -3.7L37.85 -2.2L36.85 -2.2Q36.14 -1 34.78 -0.26Q33.44 0.48 31.88 0.48ZM32.11 -1.78Q34.11 -1.78 35.53 -3.19Q36.95 -4.6 36.95 -6.63L36.95 -6.63Q36.2 -7.14 35.14 -7.42Q34.1 -7.71 32.96 -7.71Q31.01 -7.71 29.87 -6.94Q28.73 -6.18 28.73 -4.65L28.73 -4.65Q28.73 -3.37 29.69 -2.58Q30.65 -1.78 32.11 -1.78Z M43.04 0Q43.04 0 43.04 0Q43.04 0 43.04 0L43.04 -15.3Q43.04 -15.3 43.04 -15.3Q43.04 -15.3 43.04 -15.3L45.47 -15.3Q45.47 -15.3 45.47 -15.3Q45.47 -15.3 45.47 -15.3L45.47 -12.54L45.06 -12.84L45.55 -12.84Q45.97 -14.07 47.26 -14.92Q48.55 -15.78 49.93 -15.78Q50.33 -15.78 50.75 -15.72Q51.18 -15.66 51.83 -15.46Q51.83 -15.46 51.83 -15.46Q51.83 -15.46 51.83 -15.46L51.83 -12.76Q51.83 -12.76 51.83 -12.76Q51.83 -12.76 51.83 -12.76Q50.9 -13.03 50.42 -13.1Q49.95 -13.17 49.66 -13.17Q47.99 -13.17 46.79 -11.83Q45.58 -10.5 45.58 -8.61L45.58 0Q45.58 0 45.58 0Q45.58 0 45.58 0Z M60.04 0.48Q58.2 0.48 57.05 -0.67Q55.9 -1.81 55.9 -3.76L55.9 -19.62Q55.9 -19.62 55.9 -19.62Q55.9 -19.62 55.9 -19.62L58.46 -19.62Q58.46 -19.62 58.46 -19.62Q58.46 -19.62 58.46 -19.62L58.46 -4.39Q58.46 -3.1 58.97 -2.49Q59.47 -1.87 60.48 -1.87Q60.84 -1.87 61.28 -1.97Q61.72 -2.07 62.26 -2.28Q62.26 -2.28 62.26 -2.28Q62.26 -2.28 62.26 -2.28L62.26 0.09Q62.26 0.09 62.26 0.09Q62.26 0.09 62.26 0.09Q61.65 0.3 61.14 0.39Q60.63 0.48 60.04 0.48ZM53.24 -12.99Q53.24 -12.99 53.24 -12.99Q53.24 -12.99 53.24 -12.99L53.24 -15.3Q53.24 -15.3 53.24 -15.3Q53.24 -15.3 53.24 -15.3L62.21 -15.3Q62.21 -15.3 62.21 -15.3Q62.21 -15.3 62.21 -15.3L62.21 -12.99Q62.21 -12.99 62.21 -12.99Q62.21 -12.99 62.21 -12.99Z M76.88 0.48Q74.33 0.48 72.72 -0.97Q71.11 -2.41 71.11 -4.69L71.11 -4.69Q71.11 -6.99 72.92 -8.38Q74.73 -9.78 77.57 -9.78Q78.83 -9.78 80.04 -9.49Q81.26 -9.21 81.95 -8.79L81.95 -9.72Q81.95 -11.4 80.76 -12.45Q79.58 -13.5 77.72 -13.5Q76.38 -13.5 75.45 -13.01Q74.52 -12.52 73.61 -11.43Q73.61 -11.43 73.61 -11.43Q73.61 -11.43 73.61 -11.43L71.67 -12.87Q71.67 -12.87 71.67 -12.87Q71.67 -12.87 71.67 -12.87Q73.1 -14.52 74.43 -15.15Q75.77 -15.78 77.72 -15.78Q80.8 -15.78 82.59 -14.14Q84.38 -12.51 84.38 -9.69L84.38 0Q84.38 0 84.38 0Q84.38 0 84.38 0L81.95 0Q81.95 0 81.95 0Q81.95 0 81.95 0L81.95 -3.7L82.85 -2.2L81.86 -2.2Q81.13 -1 79.79 -0.26Q78.44 0.48 76.88 0.48ZM77.11 -1.78Q79.11 -1.78 80.53 -3.19Q81.95 -4.6 81.95 -6.63L81.95 -6.63Q81.19 -7.14 80.15 -7.42Q79.1 -7.71 77.96 -7.71Q76.01 -7.71 74.86 -6.94Q73.72 -6.18 73.72 -4.65L73.72 -4.65Q73.72 -3.37 74.69 -2.58Q75.65 -1.78 77.11 -1.78Z M93.2 0.48Q91.35 0.48 90.2 -0.67Q89.06 -1.81 89.06 -3.76L89.06 -19.62Q89.06 -19.62 89.06 -19.62Q89.06 -19.62 89.06 -19.62L91.61 -19.62Q91.61 -19.62 91.61 -19.62Q91.61 -19.62 91.61 -19.62L91.61 -4.39Q91.61 -3.1 92.12 -2.49Q92.63 -1.87 93.63 -1.87Q93.99 -1.87 94.43 -1.97Q94.88 -2.07 95.42 -2.28Q95.42 -2.28 95.42 -2.28Q95.42 -2.28 95.42 -2.28L95.42 0.09Q95.42 0.09 95.42 0.09Q95.42 0.09 95.42 0.09Q94.8 0.3 94.29 0.39Q93.78 0.48 93.2 0.48ZM86.39 -12.99Q86.39 -12.99 86.39 -12.99Q86.39 -12.99 86.39 -12.99L86.39 -15.3Q86.39 -15.3 86.39 -15.3Q86.39 -15.3 86.39 -15.3L95.36 -15.3Q95.36 -15.3 95.36 -15.3Q95.36 -15.3 95.36 -15.3L95.36 -12.99Q95.36 -12.99 95.36 -12.99Q95.36 -12.99 95.36 -12.99Z M110.48 0.48Q108.17 0.48 106.51 -0.52Q104.87 -1.53 103.93 -3.63Q103.93 -3.63 103.93 -3.63Q103.93 -3.63 103.93 -3.63L106.23 -4.65Q106.23 -4.65 106.23 -4.65Q106.23 -4.65 106.23 -4.65Q106.9 -3.16 108.01 -2.47Q109.12 -1.77 110.65 -1.77Q112.15 -1.77 113.01 -2.35Q113.87 -2.94 113.87 -4.08L113.87 -4.08Q113.87 -4.93 113.13 -5.53Q112.4 -6.12 110.13 -6.67Q107.15 -7.41 105.81 -8.49Q104.48 -9.57 104.48 -11.35L104.48 -11.35Q104.48 -13.36 106.18 -14.57Q107.88 -15.78 110.32 -15.78Q112.38 -15.78 113.84 -14.94Q115.31 -14.1 116.07 -12.49Q116.07 -12.49 116.07 -12.49Q116.07 -12.49 116.07 -12.49L113.85 -11.47Q113.85 -11.47 113.85 -11.47Q113.85 -11.47 113.85 -11.47Q113.32 -12.51 112.42 -13.01Q111.51 -13.51 110.25 -13.51Q108.93 -13.51 108 -12.96Q107.07 -12.4 107.07 -11.46L107.07 -11.46Q107.07 -10.6 107.76 -10.04Q108.45 -9.48 110.97 -8.89Q114.1 -8.16 115.28 -7Q116.46 -5.85 116.46 -4.21L116.46 -4.21Q116.46 -2.07 114.79 -0.79Q113.12 0.48 110.48 0.48Z M131.01 6.48Q131.01 6.48 131.01 6.48Q131.01 6.48 131.01 6.48L131.01 -2.1L130.92 -2.1Q130.35 -0.93 128.96 -0.22Q127.58 0.48 125.79 0.48Q122.64 0.48 120.56 -1.83Q118.47 -4.14 118.47 -7.71L118.47 -7.71Q118.47 -11.23 120.57 -13.51Q122.67 -15.78 125.79 -15.78Q127.44 -15.78 128.87 -15.01Q130.29 -14.25 131.04 -13.02L131.73 -13.02L131.13 -12.27L131.13 -15.3Q131.13 -15.3 131.13 -15.3Q131.13 -15.3 131.13 -15.3L133.56 -15.3Q133.56 -15.3 133.56 -15.3Q133.56 -15.3 133.56 -15.3L133.56 6.48Q133.56 6.48 133.56 6.48Q133.56 6.48 133.56 6.48ZM126.06 -1.83Q128.34 -1.83 129.74 -3.4Q131.13 -4.98 131.13 -7.71L131.13 -7.71Q131.13 -10.27 129.65 -11.87Q128.16 -13.47 126.06 -13.47Q123.96 -13.47 122.48 -11.86Q120.99 -10.26 120.99 -7.71L120.99 -7.71Q120.99 -5.13 122.46 -3.48Q123.93 -1.83 126.06 -1.83Z M142.89 0.48Q140.16 0.48 138.69 -1.12Q137.22 -2.73 137.22 -5.67L137.22 -15.3Q137.22 -15.3 137.22 -15.3Q137.22 -15.3 137.22 -15.3L139.77 -15.3Q139.77 -15.3 139.77 -15.3Q139.77 -15.3 139.77 -15.3L139.77 -6.06Q139.77 -3.99 140.71 -2.91Q141.66 -1.83 143.43 -1.83Q145.29 -1.83 146.57 -3.25Q147.84 -4.68 147.84 -6.66L147.84 -15.3Q147.84 -15.3 147.84 -15.3Q147.84 -15.3 147.84 -15.3L150.39 -15.3Q150.39 -15.3 150.39 -15.3Q150.39 -15.3 150.39 -15.3L150.39 0Q150.39 0 150.39 0Q150.39 0 150.39 0L147.96 0Q147.96 0 147.96 0Q147.96 0 147.96 0L147.96 -3.37L149.11 -2.22L147.87 -2.22Q147.21 -1.05 145.82 -0.28Q144.42 0.48 142.89 0.48Z M159.06 0.48Q156.51 0.48 154.91 -0.97Q153.3 -2.41 153.3 -4.69L153.3 -4.69Q153.3 -6.99 155.11 -8.38Q156.92 -9.78 159.75 -9.78Q161.01 -9.78 162.23 -9.49Q163.44 -9.21 164.13 -8.79L164.13 -9.72Q164.13 -11.4 162.95 -12.45Q161.76 -13.5 159.9 -13.5Q158.57 -13.5 157.64 -13.01Q156.71 -12.52 155.79 -11.43Q155.79 -11.43 155.79 -11.43Q155.79 -11.43 155.79 -11.43L153.85 -12.87Q153.85 -12.87 153.85 -12.87Q153.85 -12.87 153.85 -12.87Q155.28 -14.52 156.62 -15.15Q157.95 -15.78 159.9 -15.78Q162.99 -15.78 164.78 -14.14Q166.56 -12.51 166.56 -9.69L166.56 0Q166.56 0 166.56 0Q166.56 0 166.56 0L164.13 0Q164.13 0 164.13 0Q164.13 0 164.13 0L164.13 -3.7L165.03 -2.2L164.04 -2.2Q163.32 -1 161.97 -0.26Q160.62 0.48 159.06 0.48ZM159.3 -1.78Q161.29 -1.78 162.71 -3.19Q164.13 -4.6 164.13 -6.63L164.13 -6.63Q163.38 -7.14 162.33 -7.42Q161.28 -7.71 160.14 -7.71Q158.19 -7.71 157.05 -6.94Q155.91 -6.18 155.91 -4.65L155.91 -4.65Q155.91 -3.37 156.87 -2.58Q157.83 -1.78 159.3 -1.78Z M170.22 0Q170.22 0 170.22 0Q170.22 0 170.22 0L170.22 -15.3Q170.22 -15.3 170.22 -15.3Q170.22 -15.3 170.22 -15.3L172.65 -15.3Q172.65 -15.3 172.65 -15.3Q172.65 -15.3 172.65 -15.3L172.65 -12.54L172.24 -12.84L172.74 -12.84Q173.16 -14.07 174.45 -14.92Q175.74 -15.78 177.12 -15.78Q177.51 -15.78 177.94 -15.72Q178.36 -15.66 179.01 -15.46Q179.01 -15.46 179.01 -15.46Q179.01 -15.46 179.01 -15.46L179.01 -12.76Q179.01 -12.76 179.01 -12.76Q179.01 -12.76 179.01 -12.76Q178.08 -13.03 177.61 -13.1Q177.14 -13.17 176.85 -13.17Q175.17 -13.17 173.97 -11.83Q172.77 -10.5 172.77 -8.61L172.77 0Q172.77 0 172.77 0Q172.77 0 172.77 0Z M187.5 0.48Q184.17 0.48 182.02 -1.81Q179.88 -4.11 179.88 -7.68L179.88 -7.68Q179.88 -11.17 181.98 -13.48Q184.08 -15.78 187.29 -15.78Q190.59 -15.78 192.58 -13.61Q194.58 -11.44 194.58 -8.01Q194.58 -7.74 194.56 -7.6Q194.55 -7.45 194.52 -7.17Q194.52 -7.17 194.52 -7.17Q194.52 -7.17 194.52 -7.17L181.38 -7.17L181.38 -9.27L191.91 -9.27L191.91 -9.27Q191.76 -11.04 190.55 -12.25Q189.33 -13.47 187.29 -13.47Q185.13 -13.47 183.78 -11.89Q182.43 -10.32 182.43 -7.68L182.43 -7.68Q182.43 -5.01 183.92 -3.42Q185.42 -1.83 187.64 -1.83Q189.11 -1.83 190.15 -2.46Q191.21 -3.09 192.12 -4.59Q192.12 -4.59 192.12 -4.59Q192.12 -4.59 192.12 -4.59L194.27 -3.54Q194.27 -3.54 194.27 -3.54Q194.27 -3.54 194.27 -3.54Q193.3 -1.5 191.61 -0.51Q189.92 0.48 187.5 0.48Z M211.38 0.48Q207.99 0.48 205.76 -1.84Q203.52 -4.17 203.52 -7.66L203.52 -7.66Q203.52 -11.22 205.76 -13.5Q208.01 -15.78 211.38 -15.78Q214.74 -15.78 216.99 -13.48Q219.24 -11.17 219.24 -7.66L219.24 -7.66Q219.24 -4.17 217.01 -1.84Q214.79 0.48 211.38 0.48ZM211.38 -1.83Q213.63 -1.83 215.16 -3.46Q216.69 -5.1 216.69 -7.66L216.69 -7.66Q216.69 -10.27 215.15 -11.87Q213.6 -13.47 211.38 -13.47Q209.13 -13.47 207.59 -11.86Q206.06 -10.26 206.06 -7.66L206.06 -7.66Q206.06 -5.1 207.58 -3.46Q209.1 -1.83 211.38 -1.83Z M222.21 0L222.21 -15.3Q222.21 -15.3 222.21 -15.3Q222.21 -15.3 222.21 -15.3L224.64 -15.3Q224.64 -15.3 224.64 -15.3Q224.64 -15.3 224.64 -15.3L224.64 -12.6L224.24 -13.05L224.73 -13.05Q225.39 -14.22 226.79 -15Q228.18 -15.78 229.71 -15.78Q232.41 -15.78 233.9 -14.2Q235.38 -12.63 235.38 -9.81L235.38 0Q235.38 0 235.38 0Q235.38 0 235.38 0L232.83 0Q232.83 0 232.83 0Q232.83 0 232.83 0L232.83 -9.42Q232.83 -11.43 231.87 -12.45Q230.91 -13.47 229.02 -13.47Q227.22 -13.47 225.99 -12.03Q224.76 -10.59 224.76 -8.61L224.76 0Q224.76 0 224.76 0Q224.76 0 224.76 0L222.21 0Q222.21 0 222.21 0Q222.21 0 222.21 0Z M245.85 0.48Q242.52 0.48 240.37 -1.81Q238.23 -4.11 238.23 -7.68L238.23 -7.68Q238.23 -11.17 240.33 -13.48Q242.43 -15.78 245.64 -15.78Q248.94 -15.78 250.93 -13.61Q252.93 -11.44 252.93 -8.01Q252.93 -7.74 252.91 -7.6Q252.9 -7.45 252.87 -7.17Q252.87 -7.17 252.87 -7.17Q252.87 -7.17 252.87 -7.17L239.73 -7.17L239.73 -9.27L250.26 -9.27L250.26 -9.27Q250.11 -11.04 248.9 -12.25Q247.68 -13.47 245.64 -13.47Q243.48 -13.47 242.13 -11.89Q240.78 -10.32 240.78 -7.68L240.78 -7.68Q240.78 -5.01 242.27 -3.42Q243.77 -1.83 245.99 -1.83Q247.46 -1.83 248.5 -2.46Q249.55 -3.09 250.47 -4.59Q250.47 -4.59 250.47 -4.59Q250.47 -4.59 250.47 -4.59L252.61 -3.54Q252.61 -3.54 252.61 -3.54Q252.61 -3.54 252.61 -3.54Q251.65 -1.5 249.96 -0.51Q248.27 0.48 245.85 0.48Z M257.61 0.18Q256.8 0.18 256.25 -0.37Q255.69 -0.93 255.69 -1.74Q255.69 -2.52 256.25 -3.07Q256.8 -3.63 257.61 -3.63Q258.42 -3.63 258.97 -3.07Q259.53 -2.52 259.53 -1.74Q259.53 -0.93 258.97 -0.37Q258.42 0.18 257.61 0.18Z" fill="#8b8b86"/>
</g>
</svg>